<?xml version="1.0" standalone="no"?>
<!DOCTYPE svg PUBLIC "-//W3C//DTD SVG 20010904//EN"
 "http://www.w3.org/TR/2001/REC-SVG-20010904/DTD/svg10.dtd">
<svg version="1.0" xmlns="http://www.w3.org/2000/svg"
 width="700.000000pt" height="700.000000pt" viewBox="0 0 700.000000 700.000000"
 preserveAspectRatio="xMidYMid meet">
<metadata>
Created by potrace 1.11, written by Peter Selinger 2001-2013
</metadata>
<g transform="translate(0.000000,700.000000) scale(0.100000,-0.100000)"
fill="#000000" stroke="none">
<path d="M1618 4895 c-2 -2 -28 -6 -58 -10 -114 -14 -295 -69 -410 -124 -312
-152 -559 -414 -695 -736 -41 -98 -77 -234 -90 -347 -4 -32 -10 -58 -14 -59
-3 0 -65 -1 -137 -2 -105 -2 -135 -5 -157 -20 -68 -44 -72 -134 -7 -192 18
-17 38 -19 161 -20 76 -1 141 -4 143 -6 3 -2 7 -31 11 -64 24 -214 120 -450
262 -644 102 -138 272 -292 413 -373 102 -58 121 -68 214 -102 182 -69 303
-90 506 -90 143 0 215 7 308 30 31 8 67 17 78 19 49 11 165 60 253 106 256
134 472 355 600 614 53 107 105 254 116 326 4 24 8 46 10 49 3 5 9 54 21 160
12 119 169 259 312 278 129 18 262 -48 357 -178 26 -35 37 -62 40 -97 3 -26 7
-72 10 -100 4 -29 6 -55 6 -58 1 -16 60 -219 79 -265 76 -191 177 -341 332
-492 204 -200 497 -345 773 -384 89 -12 321 -11 402 2 451 72 814 330 1032
734 35 65 96 215 106 260 2 8 10 44 18 80 22 95 32 171 36 283 l1 27 126 0
c146 0 183 12 209 66 22 46 11 101 -28 136 -32 30 -27 30 -209 31 -129 1 -120
-4 -133 67 -13 71 -68 227 -108 310 -199 408 -569 689 -1017 769 -149 26 -404
21 -525 -11 -22 -5 -49 -12 -60 -14 -85 -16 -290 -104 -390 -166 -168 -106
-353 -287 -442 -433 -79 -129 -132 -248 -168 -369 -14 -50 -27 -92 -30 -94 -3
-4 -63 34 -75 48 -13 15 -137 63 -193 75 -146 30 -324 -11 -445 -103 -18 -14
-35 -23 -37 -20 -3 2 -16 44 -30 92 -112 385 -373 698 -730 872 -136 66 -209
90 -377 126 -46 9 -362 20 -370 13z m354 -250 c174 -30 354 -109 497 -220 224
-172 384 -443 432 -734 14 -85 14 -297 0 -382 -86 -515 -491 -907 -996 -965
-369 -41 -709 74 -970 331 -105 104 -170 192 -230 315 -228 460 -123 1015 258
1365 141 130 307 221 492 270 89 24 94 25 170 31 39 4 71 7 73 9 8 7 200 -7
274 -20z m3468 6 c143 -22 237 -53 360 -118 246 -130 419 -321 526 -579 97
-234 115 -518 49 -762 -101 -374 -353 -650 -724 -792 -135 -51 -373 -76 -541
-57 -252 30 -498 152 -685 341 -253 255 -371 591 -333 952 7 59 41 209 57 249
104 255 229 420 426 560 109 78 284 163 369 179 11 2 43 9 70 16 27 6 84 13
125 17 42 3 77 7 79 8 6 5 164 -5 222 -14z"/>
</g>
</svg>
